Coordinates
nRows=149
nColumns=2
inDegrees=yes
endheader
time	ankle_angle_r	
4.18723	 18.630898	
4.24973	 18.723312	
4.31222	 18.733857	
4.37472	 18.760005	
4.43722	 18.771323	
4.49971	 18.730817	
4.56221	 18.716151	
4.6247	 18.725694	
4.6872	 18.770552	
4.7497	 18.825849	
4.81219	 18.830791	
4.87469	 18.839943	
4.93718	 18.822337	
4.99968	 18.771391	
5.06218	 18.780127	
5.12467	 18.782270	
5.18717	 18.776002	
5.24966	 18.820219	
5.31216	 18.839796	
5.37466	 18.842159	
5.43715	 18.835590	
5.49965	 18.793350	
5.56214	 18.767000	
5.62464	 18.762470	
5.68714	 18.797578	
5.74963	 18.830885	
5.81213	 18.786028	
5.87462	 18.756698	
5.93712	 18.738378	
5.99962	 18.680799	
6.06211	 18.673254	
6.12461	 18.684554	
6.1871	 18.693608	
6.2496	 18.742971	
6.3121	 18.763209	
6.37459	 18.746469	
6.43709	 18.706989	
6.49958	 18.656779	
6.56208	 18.670523	
6.62458	 18.688287	
6.68707	 18.681053	
6.74957	 18.734521	
6.81206	 18.802974	
6.87456	 18.835280	
6.93706	 18.826165	
6.99955	 18.776644	
7.06205	 18.757961	
7.12454	 18.766220	
7.18704	 18.781330	
7.24954	 18.829006	
7.31203	 18.849390	
7.37453	 18.829252	
7.43702	 18.809141	
7.49952	 18.779784	
7.56202	 18.757784	
7.62451	 18.748447	
7.68701	 18.762153	
7.7495	 18.818790	
7.812	 18.848530	
7.8745	 18.834600	
7.93699	 18.833756	
7.99949	 18.821705	
8.06198	 18.790071	
8.12448	 18.759472	
8.18698	 18.733222	
8.24947	 18.752646	
8.31197	 18.780781	
8.37446	 18.766141	
8.43696	 18.750758	
8.49946	 18.721507	
8.56195	 18.686587	
8.62445	 18.680267	
8.68694	 18.682090	
8.74944	 18.723142	
8.81194	 18.756158	
8.87443	 18.728478	
8.93693	 18.734580	
8.99942	 18.755148	
9.06192	 18.742678	
9.12442	 18.753014	
9.18691	 18.764652	
9.24941	 18.786075	
9.3119	 18.834750	
9.3744	 18.852884	
9.4369	 18.850692	
9.49939	 18.825347	
9.56189	 18.783637	
9.62438	 18.767631	
9.68688	 18.748824	
9.74938	 18.764630	
9.81187	 18.817932	
9.87437	 18.837826	
9.93686	 18.861341	
9.99936	 18.851833	
10.0619	 18.782381	
10.1244	 18.751362	
10.1868	 18.743872	
10.2493	 18.763277	
10.3118	 18.819624	
10.3743	 18.820033	
10.4368	 18.792767	
10.4993	 18.756864	
10.5618	 18.691715	
10.6243	 18.657318	
10.6868	 18.639790	
10.7493	 18.657559	
10.8118	 18.719608	
10.8743	 18.744792	
10.9368	 18.758792	
10.9993	 18.743075	
11.0618	 18.686249	
11.1243	 18.691610	
11.1868	 18.702704	
11.2493	 18.693871	
11.3118	 18.731574	
11.3743	 18.750689	
11.4368	 18.753099	
11.4993	 18.743688	
11.5618	 18.691055	
11.6243	 18.684400	
11.6868	 18.709898	
11.7492	 18.717197	
11.8117	 18.742350	
11.8742	 18.760795	
11.9367	 18.782811	
11.9992	 18.793336	
12.0617	 18.762291	
12.1242	 18.768422	
12.1867	 18.786416	
12.2492	 18.786679	
12.3117	 18.819912	
12.3742	 18.840802	
12.4367	 18.846824	
12.4992	 18.845405	
12.5617	 18.800381	
12.6242	 18.777654	
12.6867	 18.788186	
12.7492	 18.789063	
12.8117	 18.816517	
12.8742	 18.847049	
12.9367	 18.855099	
12.9992	 18.843400	
13.0617	 18.768246	
13.1242	 18.694475	
13.1867	 18.678558	
13.2492	 18.676329	
13.3116	 18.719146	
13.3741	 18.772625	
13.4366	 18.738297	
